<svg xmlns="http://www.w3.org/2000/svg" xmlns:xlink="http://www.w3.org/1999/xlink"><symbol id="icon-email">
  <g fill="currentColor">
    <path d="m40.487 4.324-1.623-1.643-15.033 15.222c-1.88 1.902-5.04 1.902-6.919 0L1.88 2.767.256 4.411l11.19 11.33L.256 27.07l1.623 1.642 11.19-11.33 2.22 2.25c1.367 1.383 3.16 2.162 5.04 2.162s3.673-.779 5.04-2.163l2.22-2.248 11.19 11.33 1.623-1.644-11.19-11.33L40.487 4.324Z"/>
    <path d="M37.327 31.654H3.587C1.623 31.654 0 30.011 0 28.022V3.632C0 1.643 1.623 0 3.587 0h33.74c1.965 0 3.588 1.643 3.588 3.632v24.39c0 1.989-1.623 3.632-3.588 3.632ZM3.502 2.335c-.683 0-1.196.519-1.196 1.211v24.39c0 .691.513 1.21 1.196 1.21h33.74c.683 0 1.196-.519 1.196-1.21V3.545c0-.692-.513-1.21-1.196-1.21H3.502Z"/>
  </g>
</symbol><symbol id="icon-git">
  <path fill="currentColor" d="M16.414 0a16.521 16.521 0 0 0-10.8 4.013A16.195 16.195 0 0 0 .15 14.064a16.108 16.108 0 0 0 2.565 11.128 16.41 16.41 0 0 0 9.33 6.711 1.277 1.277 0 0 0 1.423-.379 1.245 1.245 0 0 0 .09-1.455 1.255 1.255 0 0 0-.844-.565A13.889 13.889 0 0 1 4.91 24a13.634 13.634 0 0 1-2.344-9.194 13.691 13.691 0 0 1 4.231-8.509 13.965 13.965 0 0 1 8.793-3.773c3.29-.186 6.54.792 9.17 2.758a13.733 13.733 0 0 1 5.182 7.976 13.617 13.617 0 0 1-1.27 9.398 13.842 13.842 0 0 1-7.118 6.35 19.598 19.598 0 0 0-.379-4.9 7.93 7.93 0 0 0 4.528-2.827 7.78 7.78 0 0 0 1.673-5.032 7.958 7.958 0 0 0-1.326-4.836 8.771 8.771 0 0 0-.505-4.199 1.252 1.252 0 0 0-.54-.67 1.274 1.274 0 0 0-.85-.167 10.17 10.17 0 0 0-4.256 1.6 14.478 14.478 0 0 0-3.485-.476c-1.28.034-2.552.214-3.79.538A7.299 7.299 0 0 0 8.357 6.56a1.273 1.273 0 0 0-.77.205c-.228.148-.4.366-.493.62a8.735 8.735 0 0 0-.467 3.986A8.863 8.863 0 0 0 5.3 16.246a8.269 8.269 0 0 0 1.828 4.97 8.42 8.42 0 0 0 4.486 2.877 9.205 9.205 0 0 0-.189.988c-1.263.075-1.996-.688-2.93-1.85a4.35 4.35 0 0 0-2.45-1.912 1.274 1.274 0 0 0-.918.188 1.25 1.25 0 0 0-.535.762c-.07.313-.016.64.151.914.167.275.434.475.746.56.202 0 .695.65.972 1.013a5.956 5.956 0 0 0 2.021 1.978c.825.49 1.756.775 2.716.833.555 0 1.107-.076 1.641-.225.131-.038.255-.097.367-.175a.903.903 0 0 0 .227-.262.425.425 0 0 0 .101-.113c.033-.068.058-.139.076-.212.03-.081.056-.165.076-.25a5.09 5.09 0 0 1 .58-2.387 1.245 1.245 0 0 0 .188-1.335 1.272 1.272 0 0 0-1.147-.727 5.836 5.836 0 0 1-3.859-1.753 5.717 5.717 0 0 1-1.623-3.882 6.002 6.002 0 0 1 1.1-3.75 1.245 1.245 0 0 0 .302-1.036 6.183 6.183 0 0 1 0-2.312 4.55 4.55 0 0 1 2.198 1.15 1.266 1.266 0 0 0 1.263.287 15.931 15.931 0 0 1 3.726-.587c1.135.028 2.26.209 3.347.537a1.276 1.276 0 0 0 1.263-.225c.735-.6 1.599-1.027 2.525-1.25.19.785.19 1.603 0 2.387a1.299 1.299 0 0 0 .405 1.25 4.958 4.958 0 0 1 .896 3.549 5.312 5.312 0 0 1-.362 2.152 5.356 5.356 0 0 1-1.199 1.832 5.422 5.422 0 0 1-1.837 1.207 5.47 5.47 0 0 1-2.171.382c-.258 0-.51.077-.723.222a1.252 1.252 0 0 0-.508 1.339c.063.248.202.47.397.638.745.638.632 4.999.594 6.698a1.24 1.24 0 0 0 .48 1.012c.223.172.5.265.783.263.105.012.21.012.315 0a16.418 16.418 0 0 0 9.546-6.62 16.111 16.111 0 0 0 2.698-11.221 16.195 16.195 0 0 0-5.51-10.165A16.523 16.523 0 0 0 16.413.001Z"/>
</symbol><symbol id="icon-html-academy">
  <path fill="currentColor" d="M12.632.015 12.5 0 0 1.325v23.158L12.5 32 25 24.483V1.325L12.632.015Zm10.733 23.529L12.5 30.077 1.635 23.544V14.05l10.82 6.51.017 1.179-7.422-4.465-.01 1.153 7.45 4.526.018 1.21-7.449-4.477-.01 1.153 7.451 4.526 7.522-4.549V15.914l3.351-2.023-.008 9.653Zm0-10.883-2.981 1.769-1.372.824-6.543-3.941-.01 1.153 5.593 3.363-.05.03-.12.07-.795.463-4.618-2.774-.01 1.153 3.645 2.191-.864.573-.02.012-2.751-1.64-.01 1.154 1.803 1.067-1.84 1.117-10.758-6.467L12.44 6.229l10.925 6.432Zm0-1.154-10.92-6.509-10.81 6.503V2.814L12.5 1.66l10.865 1.153v8.693Z"/>
</symbol><symbol id="icon-menu-close" viewBox="0 0 18 18">
<line y1="-1" x2="21.7446" y2="-1" transform="matrix(0.734461 -0.678651 0.734461 0.678651 2 17)" stroke="currentColor" stroke-width="2"/>
<line y1="-1" x2="21.7446" y2="-1" transform="matrix(-0.734461 -0.678651 0.734461 -0.678651 17.9706 15.757)" stroke="currentColor" stroke-width="2"/>
</symbol><symbol id="icon-menu-open" viewBox="0 0 24 18">
<line y1="1" x2="24" y2="1" stroke="currentColor" stroke-width="2"/>
<line y1="9" x2="24" y2="9" stroke="currentColor" stroke-width="2"/>
<line y1="17" x2="24" y2="17" stroke="currentColor" stroke-width="2"/>
</symbol><symbol id="icon-telegram">
  <path fill="currentColor" d="M32.745 2.67c1.486 0 1.877 1.134 1.438 3.8-.503 3.048-1.952 13.14-3.108 19.422-.442 2.404-1.24 3.44-2.4 3.44-.637 0-1.384-.313-2.242-.885-1.163-.775-7.033-4.696-8.307-5.617-1.163-.84-2.767-1.849-.755-3.837.716-.708 5.408-5.234 9.064-8.756.39-.376.063-.95-.37-.95a.547.547 0 0 0-.306.098c-4.927 3.301-11.76 7.882-12.63 8.48-.869.596-1.716.978-2.845.978-.577 0-1.228-.1-1.994-.322-1.711-.497-3.382-1.088-4.033-1.314-2.506-.869-1.912-1.994.522-3.076C14.537 9.796 27.164 4.51 28.907 3.778c1.698-.713 2.96-1.109 3.838-1.109Zm0-2.67c-1.205 0-2.656.392-4.85 1.311l-.263.11C18.264 5.352 9.77 8.998 3.715 11.688c-.946.421-3.824 1.7-3.712 4.374.048 1.154.677 2.727 3.397 3.67l.2.068c.76.265 2.34.816 3.962 1.286.986.287 1.878.425 2.722.425a7.028 7.028 0 0 0 3.49-.914c-.005.15-.001.3.01.45.16 2.058 1.735 3.186 2.676 3.86l.131.095c1.39 1.003 7.676 5.198 8.388 5.672 1.34.894 2.549 1.327 3.698 1.327 1.808 0 4.143-.975 4.997-5.621.812-4.407 1.749-10.563 2.433-15.058.292-1.918.531-3.49.684-4.413.307-1.863.448-3.974-.835-5.503C35.416.765 34.423 0 32.745 0Z"/>
</symbol><symbol id="logo" viewBox="0 0 45 47">
<g>
<path fill-rule="evenodd" clip-rule="evenodd" d="M18.0208 -0.106339H20.3124C20.5908 0.21485 20.8339 0.5693 21.0416 0.95701C21.0301 6.42666 20.7524 11.8852 20.2083 17.3326C19.9761 22.4875 20.1497 27.6271 20.7291 32.7511C20.6228 34.7183 19.6506 35.4272 17.8124 34.8778C17.2695 34.4657 16.8876 33.934 16.6666 33.2828C12.6165 36.0545 8.4845 36.2319 4.27075 33.8145C1.87442 31.9319 0.416087 29.4862 -0.104248 26.4774V22.224C1.28788 14.176 5.94067 10.8087 13.8541 12.1222C14.7608 12.4799 15.5594 13.0116 16.2499 13.7172L16.4583 13.5045C16.5526 9.74057 16.7609 5.98339 17.0833 2.23303C17.135 1.32685 17.4475 0.547062 18.0208 -0.106339ZM8.85409 16.0566C12.1105 15.398 14.5063 16.5323 16.0416 19.4593C15.908 22.365 15.908 25.2715 16.0416 28.1787C14.9126 29.4739 13.5584 30.4309 11.9791 31.0498C7.76786 31.6119 5.09423 29.8042 3.95825 25.6267C3.67894 23.1546 4.09561 20.8153 5.20825 18.6086L6.77075 17.0136C7.47767 16.669 8.17211 16.35 8.85409 16.0566Z" fill="currentColor"/>
<path fill-rule="evenodd" clip-rule="evenodd" d="M44.8959 22.0113V26.052C43.1959 33.9921 38.5084 36.8276 30.8334 34.5588C30.764 38.3161 30.6945 42.0731 30.6251 45.8303C30.4045 46.2895 30.092 46.644 29.6876 46.8937H27.6043C26.9705 46.527 26.5886 45.9598 26.4584 45.1923C26.712 35.0839 26.5384 24.9821 25.9376 14.8869C25.8132 13.5641 26.0561 12.3236 26.6668 11.1652C27.5997 10.4529 28.6068 10.3466 29.6876 10.8461C29.9378 11.0381 30.1115 11.2862 30.2084 11.5905C30.2778 12.4412 30.3474 13.2918 30.4168 14.1425C33.5509 11.8812 36.919 11.4204 40.5209 12.7602C42.0601 13.7646 43.1365 15.1469 43.7501 16.9072C44.3097 18.5975 44.6915 20.2989 44.8959 22.0113ZM35.1043 16.4819C36.3405 16.3519 37.5209 16.5291 38.6459 17.0136C39.5313 18.0067 40.0522 19.1763 40.2084 20.5226C40.7857 23.2199 40.5774 25.8428 39.5834 28.3914C38.003 30.6072 35.8851 31.3515 33.2293 30.6244C32.4565 30.4898 31.7274 30.2416 31.0418 29.8801C30.868 26.5416 30.6945 23.2097 30.5209 19.8846C31.7699 18.3212 33.2978 17.187 35.1043 16.4819Z" fill="currentColor"/>
</g>
</symbol></svg>