<?xml version="1.0" standalone="no"?>
<!DOCTYPE svg PUBLIC "-//W3C//DTD SVG 20010904//EN"
 "http://www.w3.org/TR/2001/REC-SVG-20010904/DTD/svg10.dtd">
<svg version="1.0" xmlns="http://www.w3.org/2000/svg"
 width="912.000000pt" height="912.000000pt" viewBox="0 0 912.000000 912.000000"
 preserveAspectRatio="xMidYMid meet">
<metadata>
Created by potrace 1.14, written by Peter Selinger 2001-2017
</metadata>
<g transform="translate(0.000000,912.000000) scale(0.100000,-0.100000)"
fill="#000000" stroke="none">
<path d="M3648 9095 c-6 -14 -15 -25 -19 -25 -13 0 -87 -163 -105 -230 -9 -36
-18 -87 -20 -115 -2 -27 -6 -81 -10 -120 -3 -38 -7 -91 -8 -117 0 -27 -3 -48
-6 -48 -3 0 -5 -24 -6 -53 0 -28 -4 -90 -8 -137 -10 -130 -15 -197 -21 -289
-3 -46 -8 -87 -10 -92 -3 -4 -1 -10 5 -14 6 -4 7 -12 3 -18 -4 -7 -8 -28 -9
-47 -1 -19 -5 -87 -8 -150 -4 -63 -9 -153 -11 -200 -13 -270 -16 -326 -20
-435 -3 -66 -7 -196 -10 -290 -2 -93 -4 -170 -5 -170 -1 0 -3 -13 -4 -29 -1
-15 -10 -35 -21 -42 -17 -13 -22 -12 -45 10 -49 49 -91 86 -96 86 -3 0 -24 15
-47 34 -67 53 -226 140 -292 159 -29 9 -74 17 -119 22 -86 10 -132 16 -156 20
-132 23 -679 15 -720 -10 -3 -2 -30 -6 -60 -9 -30 -4 -91 -15 -135 -26 -44
-11 -90 -23 -103 -25 -69 -16 -243 -84 -337 -133 -76 -39 -240 -145 -294 -189
-114 -95 -274 -264 -327 -348 -10 -16 -22 -32 -25 -35 -40 -30 -254 -445 -274
-530 -2 -8 -11 -33 -20 -55 -10 -22 -24 -62 -32 -90 -8 -27 -17 -57 -20 -65
-3 -8 -7 -19 -8 -25 -2 -5 -13 -46 -24 -90 -12 -44 -24 -91 -27 -104 -3 -13
-11 -51 -19 -85 -12 -49 -15 -165 -15 -591 0 -345 4 -542 11 -565 5 -19 12
-46 15 -59 9 -45 66 -216 76 -229 6 -6 8 -12 5 -12 -10 0 117 -278 133 -290 3
-3 23 -35 43 -71 20 -36 43 -72 52 -79 8 -7 15 -17 15 -22 0 -5 6 -15 12 -23
7 -7 22 -25 33 -41 83 -116 265 -304 391 -404 42 -33 101 -72 132 -87 31 -14
59 -30 60 -35 2 -4 9 -8 16 -8 7 0 35 -11 63 -25 66 -31 222 -95 247 -100 18
-4 73 -21 151 -45 43 -14 225 -49 292 -56 71 -8 393 -9 448 -1 22 3 63 9 90
12 28 4 52 9 55 10 3 2 25 6 50 10 24 4 52 11 62 16 10 5 18 8 18 5 0 -14 371
119 378 136 2 4 8 8 14 8 15 0 160 72 176 87 7 7 18 13 23 13 5 0 46 24 92 53
45 29 88 56 95 61 7 4 14 0 18 -11 29 -85 77 -157 161 -240 44 -43 62 -54 110
-64 32 -7 61 -18 65 -23 5 -7 8 -6 8 2 0 7 4 11 9 8 31 -19 231 3 231 26 0 4
7 8 15 8 24 0 89 65 118 118 24 45 50 123 62 187 7 36 8 172 2 183 -3 4 -8 45
-12 92 -4 47 -9 93 -11 104 -3 16 -8 66 -19 208 -2 20 -6 41 -10 47 -3 6 -1
11 5 11 6 0 8 5 4 11 -4 6 -8 28 -9 48 -2 20 -6 78 -9 130 -4 51 -9 119 -12
150 -2 31 -6 106 -9 166 -3 61 -5 110 -6 110 -14 0 -35 1472 -21 1499 3 4 6
74 8 155 2 80 5 170 8 201 6 66 15 159 21 216 11 112 17 185 21 230 1 27 5 74
8 104 3 30 7 91 10 135 3 44 8 105 11 135 2 30 7 91 10 135 3 44 8 109 10 145
13 173 39 687 50 995 5 131 16 641 19 870 3 203 3 203 -78 313 l-46 62 -245 0
-245 0 -12 -25z m-1338 -3060 c36 0 81 -3 100 -8 19 -4 53 -10 74 -13 22 -3
48 -10 57 -15 10 -5 29 -10 43 -11 15 -1 26 -6 26 -10 0 -4 8 -8 17 -8 24 0
213 -94 240 -120 12 -11 27 -20 32 -20 23 0 230 -220 287 -305 105 -157 111
-171 108 -250 -1 -38 -5 -155 -8 -258 -3 -104 -8 -193 -11 -198 -4 -5 -1 -9 5
-9 6 0 8 -5 4 -11 -12 -20 -6 -694 10 -1082 l3 -69 -96 -96 c-95 -95 -289
-252 -310 -252 -6 0 -11 -4 -11 -8 0 -5 -15 -16 -32 -25 -18 -10 -49 -27 -68
-38 -19 -12 -64 -36 -100 -54 -173 -87 -214 -96 -450 -96 -179 0 -286 13 -396
46 -26 8 -51 12 -56 9 -4 -3 -8 0 -8 5 0 6 -8 11 -18 11 -10 0 -22 3 -26 7 -4
5 -11 8 -14 9 -11 1 -44 14 -82 32 -149 71 -322 215 -410 341 -19 28 -38 50
-42 51 -5 0 -8 5 -8 11 0 6 -13 29 -28 52 -38 57 -75 129 -106 207 -15 36 -31
74 -36 85 -37 79 -71 217 -75 304 -14 253 -2 441 40 651 3 14 8 39 11 55 7 38
10 46 17 65 6 16 38 128 41 145 2 12 43 122 55 150 89 197 83 188 244 350 149
151 155 155 257 203 247 116 304 140 357 146 21 2 38 5 38 6 0 4 62 9 148 14
49 2 91 7 95 10 3 4 8 3 11 -1 3 -5 35 -8 71 -8z"/>
<path d="M5588 7058 c-84 -21 -189 -78 -216 -116 -23 -33 -75 -158 -96 -232
-47 -162 -57 -295 -42 -525 12 -178 16 -244 21 -350 3 -55 8 -147 11 -205 3
-58 6 -147 7 -197 1 -51 4 -93 7 -93 3 0 6 -44 6 -98 1 -53 5 -158 8 -232 8
-181 16 -387 21 -545 2 -71 4 -130 5 -130 1 0 3 -79 6 -175 2 -96 6 -256 8
-355 25 -931 26 -2309 3 -3320 -3 -132 5 -208 24 -229 5 -6 9 -16 9 -24 0 -8
9 -27 21 -43 11 -16 18 -29 15 -29 -2 0 18 -25 47 -55 28 -30 55 -55 60 -55 4
0 15 -7 23 -15 10 -9 33 -14 65 -13 27 0 53 -2 56 -6 3 -3 12 -1 19 5 8 7 14
7 18 0 4 -6 16 -7 29 -2 12 5 31 5 42 1 11 -4 25 -3 32 2 7 5 14 5 17 -1 4 -6
15 -7 29 -2 13 5 30 5 39 0 10 -6 19 -6 23 0 3 6 12 8 20 4 30 -11 66 8 123
65 102 101 100 94 106 449 3 169 6 308 6 308 1 0 3 104 5 230 2 127 6 370 10
540 3 171 8 402 10 515 2 113 4 222 4 244 1 43 -6 42 106 11 65 -18 261 -63
310 -71 17 -2 44 -6 60 -9 17 -2 41 -6 54 -9 13 -3 54 -8 90 -11 36 -3 82 -8
101 -10 44 -6 323 -6 370 -1 19 2 60 7 90 10 288 32 636 179 818 346 18 16 35
30 38 30 15 0 163 163 233 255 16 22 37 48 45 58 9 9 13 17 9 17 -5 0 -3 4 2
8 15 10 84 125 120 197 17 33 32 62 35 65 7 6 74 156 85 190 1 3 6 16 12 30
32 77 99 288 133 422 l40 153 -4 435 c-2 239 -6 449 -9 465 -3 17 -8 48 -11
70 -4 22 -9 51 -12 65 -3 13 -7 38 -10 55 -2 16 -6 40 -9 53 -3 12 -7 32 -10
45 -2 12 -8 36 -12 52 -4 17 -6 33 -5 37 1 4 -4 27 -12 50 -7 24 -19 68 -26
98 -12 55 -20 83 -61 220 -13 41 -24 80 -25 85 -1 6 -20 57 -43 115 -76 195
-191 374 -329 515 -81 82 -85 86 -162 145 -25 19 -46 38 -48 43 -2 4 -9 7 -15
7 -6 0 -20 8 -31 18 -19 16 -89 45 -141 57 -11 3 -45 12 -75 20 -30 9 -62 18
-70 20 -87 20 -148 33 -162 34 -49 4 -58 6 -58 11 0 22 -484 17 -591 -6 -13
-3 -35 -7 -49 -9 -22 -3 -97 -20 -125 -29 -5 -1 -30 -8 -55 -15 -68 -19 -163
-53 -177 -64 -7 -5 -13 -6 -13 -2 0 4 -7 2 -15 -5 -8 -7 -15 -9 -15 -4 0 5 -4
4 -8 -1 -4 -6 -27 -19 -52 -30 -25 -11 -48 -23 -51 -28 -3 -5 -9 -9 -12 -8
-20 1 -117 -53 -244 -136 -45 -29 -83 -53 -85 -53 -2 0 -4 12 -4 28 -1 39 -15
222 -19 252 -2 14 -7 66 -10 115 -6 90 -22 155 -37 155 -4 0 -8 6 -8 13 0 24
-65 75 -125 97 -103 37 -216 44 -317 18z m1777 -1140 c6 -3 34 -9 63 -12 29
-3 63 -11 75 -18 12 -6 22 -10 22 -9 0 4 56 -9 90 -21 66 -23 101 -42 125 -68
42 -46 70 -80 70 -86 0 -3 18 -32 40 -64 22 -32 40 -61 40 -64 0 -2 16 -38 35
-79 19 -41 35 -81 35 -89 0 -8 3 -18 7 -22 4 -3 8 -12 9 -19 1 -7 9 -39 17
-72 9 -33 18 -78 21 -100 6 -37 20 -119 32 -182 3 -16 7 -39 9 -53 2 -14 4
-25 5 -25 2 0 6 -40 16 -165 9 -118 5 -475 -6 -475 0 0 -3 -21 -5 -47 -2 -27
-6 -56 -9 -65 -3 -10 -8 -36 -11 -58 -2 -22 -7 -51 -11 -65 -3 -14 -10 -45
-15 -69 -5 -24 -13 -49 -19 -56 -5 -6 -7 -14 -4 -18 6 -6 -58 -217 -87 -285
-10 -23 -29 -53 -41 -67 -13 -13 -45 -50 -73 -82 -45 -53 -79 -85 -180 -168
-16 -14 -36 -25 -42 -25 -7 0 -13 -3 -13 -8 0 -8 -7 -12 -96 -56 -76 -37 -131
-56 -138 -49 -3 4 -6 2 -6 -4 0 -6 -21 -14 -47 -18 -27 -5 -55 -10 -63 -12
-101 -23 -265 -22 -405 2 -31 6 -223 48 -285 64 -55 13 -169 55 -232 85 -52
25 -58 31 -59 59 0 18 -2 55 -4 82 -2 28 -6 109 -10 180 -3 72 -8 162 -10 200
-2 39 -7 111 -9 160 -3 50 -8 143 -11 209 -7 159 -14 281 -21 401 -6 99 -7
126 -18 365 -3 69 -6 125 -7 125 0 0 -2 43 -5 95 l-4 95 43 49 c53 63 178 189
237 240 160 139 429 301 600 361 36 13 335 16 355 3z"/>
</g>
</svg>
